<?xml version="1.0" encoding="UTF-8"?>
<svg xmlns="http://www.w3.org/2000/svg" xmlns:xlink="http://www.w3.org/1999/xlink" width="254pt" height="61pt" viewBox="0 0 254 61" version="1.1" fill="black">
<g id="surface1">
<path style=" stroke:none;fill-rule:nonzero;fill:rgb(100%,100%,100%);fill-opacity:1;" d="M 48.257812 5.445312 L 60.75 5.445312 L 63.605469 0 L 0 0 L 9.136719 17.484375 L 15.347656 5.445312 L 28.269531 5.445312 L 19.632812 22.140625 L 11.492188 22.140625 L 17.347656 33.320312 L 31.769531 5.445312 L 44.761719 5.445312 L 25.914062 41.777344 L 21.773438 41.777344 L 31.769531 61.050781 L 52.113281 22.140625 L 39.691406 22.140625 Z M 48.257812 5.445312 "/>
<path style=" stroke:none;fill-rule:nonzero;fill:rgb(100%,100%,100%);fill-opacity:1;" d="M 51.113281 9.316406 L 91.734375 9.316406 L 87.664062 18.628906 L 73.53125 18.628906 L 73.53125 46.71875 L 64.179688 46.71875 L 64.179688 18.628906 L 46.257812 18.628906 Z M 51.113281 9.316406 "/>
<path style=" stroke:none;fill-rule:nonzero;fill:rgb(100%,100%,100%);fill-opacity:1;" d="M 98.015625 9.316406 L 110.222656 9.316406 L 127 46.792969 L 116.578125 46.792969 L 113.648438 40.199219 L 94.660156 40.199219 L 91.949219 46.792969 L 81.527344 46.792969 Z M 98.160156 32.03125 L 110.152344 32.03125 L 104.085938 17.984375 Z M 98.160156 32.03125 "/>
<path style=" stroke:none;fill-rule:nonzero;fill:rgb(100%,100%,100%);fill-opacity:1;" d="M 129.925781 9.316406 L 158.125 9.316406 C 159.910156 9.316406 161.410156 9.601562 162.621094 10.105469 C 163.835938 10.605469 164.765625 11.394531 165.40625 12.324219 C 166.121094 13.257812 166.550781 14.476562 166.835938 15.835938 C 167.121094 17.199219 167.261719 18.703125 167.261719 20.421875 L 167.261719 22.785156 C 167.261719 24.003906 167.191406 25.152344 167.050781 26.15625 C 166.90625 27.15625 166.621094 28.019531 166.265625 28.804688 C 165.90625 29.59375 165.335938 30.238281 164.691406 30.742188 C 163.980469 31.242188 163.121094 31.671875 162.050781 32.03125 L 162.050781 32.101562 C 162.765625 32.246094 163.40625 32.53125 164.050781 32.820312 C 164.691406 33.105469 165.191406 33.535156 165.691406 34.179688 C 166.121094 34.824219 166.550781 35.613281 166.761719 36.617188 C 167.050781 37.621094 167.191406 38.839844 167.191406 40.414062 L 167.191406 46.792969 L 157.839844 46.792969 L 157.839844 42.277344 C 157.839844 40.34375 157.554688 38.980469 156.984375 38.191406 C 156.410156 37.40625 155.414062 37.046875 153.984375 37.046875 L 139.277344 37.046875 L 139.277344 46.792969 L 129.925781 46.792969 Z M 139.277344 27.730469 L 154.769531 27.730469 C 156.054688 27.730469 156.910156 27.445312 157.410156 26.800781 C 157.910156 26.15625 158.195312 25.152344 158.195312 23.789062 L 158.195312 22.570312 C 158.195312 20.921875 157.839844 19.847656 157.199219 19.347656 C 156.484375 18.84375 155.414062 18.628906 153.914062 18.628906 L 139.277344 18.628906 Z M 139.277344 27.730469 "/>
<path style=" stroke:none;fill-rule:nonzero;fill:rgb(100%,100%,100%);fill-opacity:1;" d="M 172.261719 9.316406 L 181.613281 9.316406 L 181.613281 30.957031 C 181.613281 33.320312 182.039062 35.039062 182.824219 36.042969 C 183.609375 37.046875 184.96875 37.546875 186.894531 37.546875 L 196.175781 37.546875 C 198.101562 37.546875 199.460938 37.046875 200.246094 36.042969 C 201.03125 35.039062 201.457031 33.320312 201.457031 30.957031 L 201.457031 9.316406 L 210.808594 9.316406 L 210.808594 33.390625 C 210.808594 38.050781 209.8125 41.5625 207.8125 43.78125 C 205.8125 46.003906 202.671875 47.148438 198.316406 47.148438 L 184.894531 47.148438 C 180.542969 47.148438 177.398438 46.003906 175.402344 43.78125 C 173.402344 41.5625 172.402344 38.050781 172.402344 33.390625 L 172.402344 9.316406 Z M 172.261719 9.316406 "/>
<path style=" stroke:none;fill-rule:nonzero;fill:rgb(100%,100%,100%);fill-opacity:1;" d="M 215.023438 34.46875 L 224.375 34.46875 C 224.375 35.46875 224.445312 36.257812 224.660156 36.832031 C 224.800781 37.40625 225.085938 37.835938 225.445312 38.121094 C 225.800781 38.40625 226.230469 38.621094 226.730469 38.695312 C 227.230469 38.765625 227.800781 38.765625 228.515625 38.765625 L 240.007812 38.765625 C 240.507812 38.765625 241.007812 38.765625 241.507812 38.695312 C 242.007812 38.621094 242.433594 38.480469 242.792969 38.265625 C 243.148438 38.050781 243.507812 37.691406 243.71875 37.332031 C 243.933594 36.902344 244.078125 36.328125 244.078125 35.613281 C 244.078125 34.753906 243.933594 34.179688 243.71875 33.679688 C 243.507812 33.25 242.933594 32.890625 242.007812 32.675781 C 241.148438 32.460938 239.792969 32.316406 238.082031 32.246094 C 236.296875 32.175781 233.941406 32.175781 230.941406 32.175781 C 227.445312 32.175781 224.660156 32.03125 222.589844 31.671875 C 220.519531 31.386719 218.949219 30.8125 217.878906 29.953125 C 216.804688 29.09375 216.09375 27.945312 215.808594 26.511719 C 215.523438 25.078125 215.378906 23.144531 215.378906 20.851562 C 215.378906 19.132812 215.449219 17.554688 215.664062 16.121094 C 215.808594 14.691406 216.308594 13.398438 217.09375 12.324219 C 217.878906 11.25 219.089844 10.390625 220.804688 9.816406 C 222.445312 9.171875 224.730469 8.886719 227.730469 8.886719 L 240.792969 8.886719 C 243.507812 8.886719 245.648438 9.171875 247.148438 9.671875 C 248.71875 10.175781 249.859375 10.964844 250.714844 11.964844 C 251.5 12.96875 252 14.117188 252.285156 15.476562 C 252.5 16.839844 252.644531 18.34375 252.644531 19.992188 L 252.644531 21.210938 L 243.292969 21.210938 C 243.292969 20.492188 243.21875 19.921875 243.21875 19.417969 C 243.148438 18.917969 242.933594 18.558594 242.648438 18.199219 C 242.363281 17.914062 241.863281 17.628906 241.292969 17.484375 C 240.648438 17.339844 239.863281 17.269531 238.792969 17.269531 L 228.441406 17.269531 C 227.371094 17.269531 226.515625 17.484375 225.871094 17.984375 C 225.230469 18.488281 224.875 19.203125 224.875 20.207031 C 224.875 21.066406 225.015625 21.640625 225.230469 22.140625 C 225.445312 22.570312 225.945312 22.929688 226.730469 23.144531 C 227.515625 23.359375 228.65625 23.503906 230.085938 23.503906 C 231.585938 23.503906 233.511719 23.574219 236.082031 23.574219 C 239.722656 23.574219 242.648438 23.648438 245.003906 23.863281 C 247.359375 24.078125 249.144531 24.578125 250.503906 25.4375 C 251.785156 26.296875 252.714844 27.445312 253.214844 29.09375 C 253.714844 30.667969 254 32.820312 254 35.542969 C 254 38.050781 253.785156 40.054688 253.359375 41.632812 C 252.929688 43.136719 252.144531 44.355469 251.074219 45.214844 C 249.929688 46.074219 248.433594 46.648438 246.433594 46.863281 C 244.433594 47.148438 241.933594 47.292969 238.792969 47.292969 L 227.445312 47.292969 C 225.300781 47.292969 223.515625 47.148438 222.019531 46.863281 C 220.519531 46.578125 219.304688 46.074219 218.304688 45.285156 C 217.378906 44.570312 216.664062 43.496094 216.164062 42.207031 C 215.734375 40.917969 215.523438 39.195312 215.523438 37.191406 L 215.523438 34.46875 Z M 215.023438 34.46875 "/>
</g>
</svg>
